<?xml version="1.0" encoding="UTF-8" standalone="no"?>
<svg version="1.1" width="128" height="128.00003" id="svg2999">
  <defs id="defs3001"/>
  <g transform="translate(-193.14286,-374.07645)" id="layer1">
    <path d="m 289.47507,406.62438 c -0.29207,-0.006 -0.60629,0.0365 -0.88014,0.13806 l -8.78415,3.17541 c -0.77439,0.27176 -1.40508,0.97361 -1.57044,1.77756 l -1.48416,7.52434 -13.20211,0 c -0.66181,0 -1.19077,0.52894 -1.19077,1.19075 l 0,5.66051 c 0,0.66153 0.52896,1.19075 1.19077,1.19075 l 1.3461,0 25.54133,0 1.32884,0 c 0.66182,0 1.20803,-0.52922 1.20803,-1.19075 l 0,-5.66051 c 0,-0.66181 -0.54621,-1.19075 -1.20803,-1.19075 l -10.1475,0 1.05271,-5.24633 7.5416,-2.70948 c 1.0521,-0.36337 1.74697,-1.55871 1.57044,-2.65767 -0.17658,-1.09892 -1.19955,-1.98643 -2.31252,-2.00189 z m -49.9609,20.84724 c -8.87173,1.92458 -15.90704,7.71022 -18.15505,15.22125 -0.22532,0.74958 0.42532,1.62329 1.20803,1.62222 l 33.79048,0 z m 14.41014,0.36239 16.23945,16.23947 c 0.41289,-0.30899 0.60104,-0.88792 0.44869,-1.38061 -2.12525,-7.10032 -8.5086,-12.64646 -16.68814,-14.85886 z m 10.97586,1.67402 0,0.62127 c 3.98428,3.04166 6.96086,7.06194 8.36996,11.76972 l 0,0.0171 c 0.4863,1.66005 -0.0497,3.16155 -1.17352,4.09009 l 15.8943,15.89433 1.25981,0 c 0.66182,0 1.19078,-0.54612 1.19078,-1.2081 l 0,-3.1236 0,-28.06095 -25.54133,0 z m -39.58905,18.08601 c -1.37371,0 -2.51962,1.44103 -2.51962,3.15813 0,1.71715 1.14591,3.14095 2.51962,3.14095 l 40.62451,0 -6.29904,-6.29908 z m 4.05555,7.95581 c -3.4269,0 -6.16209,2.08925 -6.40259,4.64228 l -0.0517,0.39695 0.62128,0 2.4851,0 0.51773,0 0.069,-0.32792 c 0.18202,-1.15844 1.34521,-2.00189 2.76122,-2.00189 1.41601,0 2.61218,0.84477 2.79574,2.00189 l 0.0863,0.32792 0.48322,0 4.38344,0 0.50047,0 0.0345,-0.32792 c 0.18196,-1.15844 1.36241,-2.00189 2.77848,-2.00189 1.41618,0 2.61239,0.84477 2.79574,2.00189 l 0.0863,0.32792 0.48321,0 4.36619,0 0.51773,0 0.0517,-0.32792 c 0.18203,-1.15844 1.36225,-2.00189 2.77848,-2.00189 1.4159,0 2.61234,0.84477 2.79574,2.00189 l 0.069,0.32792 0.48322,0 4.38344,0 0.51773,0 0.0345,-0.32792 c 0.18191,-1.15844 1.36225,-2.00189 2.77848,-2.00189 1.4159,0 2.62949,0.84477 2.813,2.00189 l 0.069,0.32792 0.48321,0 2.51962,0 0.60402,0 -0.0345,-0.39695 c -0.24183,-2.55391 -3.02762,-4.64228 -6.45436,-4.64228 -2.4158,0 -4.40981,1.06743 -5.50519,2.57136 -1.09985,-1.50602 -3.13918,-2.57136 -5.55697,-2.57136 -2.42274,0 -4.41323,1.09499 -5.50519,2.60588 -1.09637,-1.51332 -3.13183,-2.60588 -5.55696,-2.60588 -2.4153,0 -4.4268,1.06771 -5.52245,2.57136 -1.09974,-1.5063 -3.13879,-2.57136 -5.55696,-2.57136 z m -5.50519,6.7132 c -0.70804,0 -1.25904,0.20599 -1.77754,0.60404 -0.25928,0.19903 -0.52662,0.45505 -0.69031,0.93186 -0.16352,0.47709 -0.0105,1.21224 0.34515,1.60499 l 2.38156,2.64045 c 0.0646,0.0716 0.18122,0.30075 0.46596,0.65574 0.28457,0.35531 0.96596,0.82836 1.67399,0.82836 l 39.46825,0 c 0.70804,0 1.40657,-0.47305 1.69125,-0.82836 0.28458,-0.3551 0.38387,-0.58417 0.4487,-0.65574 l 2.38155,-2.64045 c 0.3551,-0.39287 0.49147,-1.12807 0.3279,-1.60499 -0.16352,-0.47675 -0.43092,-0.73283 -0.69031,-0.93186 -0.51844,-0.39811 -1.05246,-0.60404 -1.76028,-0.60404 z" id="rect4783-8-1" style="fill:#000000;fill-opacity:1;stroke:none"/>
    <path d="m 257.13423,374.07645 c -35.28642,0 -63.99137,28.72214 -63.99137,64.00866 0,35.28629 28.70495,63.99137 63.99137,63.99137 35.2864,0 64.00863,-28.70508 64.00863,-63.99137 0,-35.28652 -28.72223,-64.00866 -64.00863,-64.00866 z m 0,9.9404 c 29.9142,0 54.06822,24.15392 54.06822,54.06826 0,13.96069 -5.26067,26.66205 -13.90967,36.24107 l -76.39962,-76.39966 c 9.57898,-8.64898 22.28033,-13.90967 36.24107,-13.90967 z m -40.1413,17.82719 76.38237,76.38231 c -9.57787,8.6439 -22.28497,13.90972 -36.24107,13.90972 -29.91419,0 -54.05096,-24.13685 -54.05096,-54.05096 0,-13.95617 5.2658,-26.66321 13.90966,-36.24107 z" id="path4320" style="font-size:medium;font-style:normal;font-variant:normal;font-weight:normal;font-stretch:normal;text-indent:0;text-align:start;text-decoration:none;line-height:normal;letter-spacing:normal;word-spacing:normal;text-transform:none;direction:ltr;block-progression:tb;writing-mode:lr-tb;text-anchor:start;baseline-shift:baseline;color:#000000;fill:#d34834;fill-opacity:1;fill-rule:nonzero;stroke:none;stroke-width:19.36615562;marker:none;visibility:visible;display:inline;overflow:visible;enable-background:accumulate;font-family:Sans;-inkscape-font-specification:Sans"/>
  </g>
</svg>
